<svg width="65" height="65" viewBox="0 0 65 65" fill="none" xmlns="http://www.w3.org/2000/svg">
<path d="M32.4959 0.676529C14.5519 0.676529 0 15.2853 0 33.3065C0 47.7203 9.31125 59.9484 22.23 64.2668C23.855 64.5675 24.4481 63.56 24.4481 62.6947C24.4481 61.9187 24.4197 59.8672 24.4034 57.1453C15.3644 59.1156 13.455 52.77 13.455 52.77C11.9803 49 9.8475 47.9965 9.8475 47.9965C6.89406 45.9734 10.0669 46.014 10.0669 46.014C13.3291 46.2456 15.0434 49.3778 15.0434 49.3778C17.9441 54.3625 22.6525 52.9243 24.505 52.0875C24.7975 49.979 25.6384 48.5409 26.5688 47.7243C19.3538 46.8997 11.765 44.1006 11.765 31.6003C11.765 28.0375 13.0325 25.1247 15.1125 22.8415C14.7753 22.0168 13.6622 18.6978 15.4294 14.2087C15.4294 14.2087 18.1594 13.3312 24.3669 17.5522C26.9587 16.829 29.7375 16.4675 32.5041 16.4553C35.2625 16.4715 38.0453 16.829 40.6413 17.5562C46.8447 13.3353 49.5706 14.2128 49.5706 14.2128C51.3419 18.7059 50.2287 22.0209 49.8956 22.8456C51.9797 25.1287 53.235 28.0415 53.235 31.6043C53.235 44.1372 45.6381 46.8956 38.3988 47.704C39.5647 48.7115 40.6047 50.7022 40.6047 53.745C40.6047 58.1081 40.5641 61.6262 40.5641 62.6947C40.5641 63.5681 41.1491 64.5837 42.7984 64.2628C55.6969 59.9403 65 47.7162 65 33.3065C65 15.2853 50.4481 0.676529 32.4959 0.676529Z" fill="#B041D5"/>
</svg>
