<svg width="665" height="234" viewBox="0 0 665 234" fill="none" xmlns="http://www.w3.org/2000/svg">
<g clip-path="url(#clip0)">
<path d="M122.313 127.604C135.434 124.782 146.161 83.9523 141.748 70.2828C135.982 52.4365 91.5292 46.1203 75.2518 54.4488C72.4438 59.7315 70.3933 69.9792 68.7051 78.113L112.08 87.5277L111.255 91.3283L67.8894 81.9156C67.8774 81.9709 48.5561 77.8447 48.5561 77.8447C15.2642 70.6185 0.262233 143.072 44.1902 152.607C44.1902 152.607 49.2805 136.943 53.8452 129.53C67.9387 106.654 100.73 132.25 122.313 127.604ZM86.0203 75.728C81.0205 74.6428 77.8499 69.7142 78.9371 64.7052C80.0224 59.7054 84.953 56.5255 89.9528 57.6107C94.9618 58.698 98.1304 63.6358 97.0452 68.6356C95.9692 73.6374 91.0293 76.8153 86.0203 75.728Z" fill="#04B778"/>
<path d="M145.786 100.543C145.786 100.543 141.155 116.316 136.592 123.719C122.501 146.586 89.7164 121.002 68.1244 125.646C55.0123 128.47 44.2673 169.295 48.6892 182.967C54.4443 200.82 98.8971 207.137 115.186 198.801C117.992 193.527 120.042 183.28 121.73 175.146L78.3467 165.729L79.1716 161.929L122.537 171.341C122.549 171.286 143.937 175.861 143.937 175.861C174.618 182.52 193.063 110.804 145.786 100.543ZM103.199 175.615C108.198 176.7 111.378 181.631 110.291 186.64C109.206 191.64 104.268 194.808 99.2682 193.723C94.2684 192.638 91.0977 187.709 92.183 182.709C93.2702 177.7 98.1988 174.53 103.199 175.615Z" fill="#04B778"/>
</g>
<g clip-path="url(#clip1)">
<path d="M301.068 50.918C292.309 58.1432 282.381 66.3324 277.697 78.9778C269.568 101.036 301.111 121.989 302.458 122.87C302.771 123.075 303.133 123.161 303.486 123.134C303.86 123.105 304.226 122.948 304.51 122.67C305.063 122.13 305.166 121.278 304.759 120.622C304.635 120.423 292.359 100.499 291.611 85.5858C291.353 80.3913 298.155 73.953 305.356 67.1367C311.951 60.8934 319.427 53.8173 323.511 45.8981C332.472 28.4686 319.83 12.9803 319.702 12.8256C319.201 12.2255 318.349 12.0599 317.659 12.4276C316.97 12.7971 316.635 13.5982 316.856 14.3478C316.888 14.4544 319.934 25.1054 314.632 36.7281C312.449 41.5303 307.175 45.8805 301.068 50.918Z" fill="#1EFFC8"/>
<path d="M340.646 55.2553C341.262 54.713 341.385 53.8007 340.935 53.1148C340.484 52.4289 339.598 52.1793 338.856 52.5286C337.329 53.2477 301.475 70.3325 302.799 87.5413C303.711 99.4042 309.261 105.281 313.313 109.573C314.902 111.256 316.275 112.71 316.789 114.002C318.245 117.726 316.021 124.831 315.043 127.254C314.76 127.951 314.987 128.752 315.592 129.198C315.919 129.439 316.313 129.544 316.697 129.515C317.023 129.49 317.344 129.368 317.612 129.148C318.213 128.658 332.295 116.984 328.648 104.505C327.282 99.7598 324.642 96.4192 322.312 93.4714C318.703 88.904 316.096 85.605 319.151 78.9065C322.732 71.0917 340.467 55.4124 340.646 55.2553Z" fill="#1EFFC8"/>
<path d="M250.025 134.918C249.538 136.863 249.982 138.721 251.308 140.293C255.741 145.546 270.164 147.517 291.923 145.843C291.924 145.843 291.925 145.843 291.926 145.843C294.874 145.616 297.982 145.318 301.161 144.959C335.853 141.038 347.922 129.208 348.419 128.706C348.961 128.159 349.051 127.311 348.639 126.663C348.226 126.014 347.422 125.735 346.694 125.996C334.7 130.284 311.914 133.231 296.045 134.452C278.289 135.818 269.148 135.234 266.862 134.46C267.878 132.813 274.67 129.488 283.221 127.113C284.038 126.886 284.549 126.076 284.402 125.241C284.255 124.405 283.499 123.818 282.653 123.883C277.564 124.274 252.073 126.646 250.025 134.918Z" fill="#AE3ACB"/>
<path d="M365.574 114.801C358.398 115.353 351.871 119.473 351.596 119.647C350.96 120.054 350.682 120.84 350.92 121.558C351.159 122.274 351.855 122.736 352.608 122.679C352.76 122.667 367.923 121.626 369.961 130.178C371.751 137.554 357.129 150.852 351.344 155.354C350.719 155.84 350.528 156.702 350.89 157.406C351.198 158.006 351.831 158.347 352.481 158.297C352.595 158.288 352.709 158.268 352.821 158.234C354.244 157.814 387.609 147.724 382.501 128.239C379.38 116.297 371.573 114.34 365.574 114.801Z" fill="#AE3ACB"/>
<path d="M345.129 153.4C345.198 152.758 344.885 152.134 344.33 151.805L335.753 146.73C335.335 146.483 334.827 146.434 334.371 146.594C334.287 146.622 325.949 149.514 313.699 151.836C308.838 152.763 303.368 153.476 297.879 153.898C285.527 154.848 277.338 154.018 276.08 153.044C275.902 152.757 275.94 152.617 275.962 152.54C276.13 151.929 277.221 151.135 277.938 150.799C278.73 150.434 279.102 149.515 278.784 148.703C278.467 147.89 277.572 147.466 276.741 147.734C268.729 150.332 264.949 153.394 265.506 156.835C266.494 162.935 280.958 164.992 293.045 164.901C294.783 164.886 296.657 164.802 298.615 164.651C298.616 164.651 298.616 164.651 298.618 164.651C318.609 163.113 343.755 154.869 344.006 154.786C344.621 154.585 345.059 154.043 345.129 153.4Z" fill="#AE3ACB"/>
<path d="M284.789 171.296C285.375 170.848 285.589 170.065 285.316 169.38C285.044 168.695 284.352 168.284 283.616 168.351C282.524 168.464 272.946 169.637 272.744 175.808C272.681 177.652 273.334 179.283 274.684 180.653C278.449 184.477 287.951 186.192 303.728 185.894C305.594 185.863 307.486 185.773 309.351 185.63C329.32 184.094 342.287 176.807 342.83 176.498C343.356 176.197 343.675 175.633 343.661 175.028C343.646 174.423 343.301 173.874 342.762 173.598L331.994 168.111C331.621 167.921 331.188 167.882 330.787 167.996C330.724 168.015 324.298 169.872 314.546 171.968C312.7 172.365 310.375 172.673 307.635 172.884C297.791 173.641 286.718 172.875 284.537 171.983C284.491 171.789 284.511 171.536 284.789 171.296Z" fill="#AE3ACB"/>
<path d="M301.497 205.223C347.233 201.666 371.157 191.644 375.492 186.161C377.027 184.222 377.076 182.494 376.848 181.385C376.284 178.656 373.644 177.162 373.345 177.001C372.625 176.612 371.712 176.798 371.224 177.457C370.738 178.116 370.795 179.02 371.378 179.596C371.695 179.945 371.91 180.553 371.131 181.462C369.377 183.373 350.721 190.2 319.096 194.252C314.764 194.813 310.211 195.279 305.565 195.637C277.138 197.823 256.035 195.53 253.13 193.471C254.066 191.878 261.239 188.895 268.959 186.927C269.829 186.705 270.361 185.828 270.157 184.954C269.952 184.08 269.09 183.534 268.207 183.718C267.989 183.765 267.243 183.868 266.38 183.988C253.528 185.769 238.742 188.674 238.475 195.387C238.395 197.432 239.139 199.226 240.687 200.719C244.476 204.368 254.899 208.807 301.495 205.223C301.496 205.223 301.496 205.223 301.497 205.223Z" fill="#AE3ACB"/>
<path d="M384.587 186.913C383.917 186.663 383.165 186.873 382.723 187.431C382.661 187.509 376.337 195.228 355.986 201.042C348.192 203.236 333.395 205.184 312.007 206.829C290.578 208.477 270.123 209.203 269.919 209.21C269.064 209.234 268.384 209.909 268.332 210.756C268.28 211.603 268.881 212.351 269.719 212.484C269.935 212.517 291.689 215.88 320.906 213.633C334.92 212.555 348.468 210.368 361.177 207.131C384.871 201.073 385.637 189.034 385.658 188.525C385.687 187.812 385.255 187.162 384.587 186.913Z" fill="#AE3ACB"/>
</g>
<g clip-path="url(#clip2)">
<path d="M542.696 57.4111C542.629 57.093 542.579 56.773 542.543 56.4506C542.013 51.7314 544.674 47.5455 548.472 47.1195C552.36 46.6835 555.826 50.1013 556.364 54.9003C556.486 55.987 556.44 57.0529 556.244 58.0547C557.18 56.1163 557.584 53.7639 557.316 51.3754C556.672 45.6368 552.48 41.3788 547.972 41.8844C543.463 42.3902 540.319 47.4706 540.963 53.2096C541.121 54.6203 541.497 55.9764 542.083 57.2521C542.282 57.3033 542.486 57.3567 542.696 57.4111Z" fill="#42DF8E"/>
<path d="M521.325 50.6223C521.567 50.5572 521.79 50.5148 522.014 50.4896C525.038 50.1505 528.082 52.8142 529.251 56.8227C529.372 57.2631 529.467 57.7048 529.537 58.1431C529.722 58.0212 529.911 57.9051 530.105 57.7955C530.125 57.0754 530.099 56.4056 530.024 55.7384C529.431 50.4453 526.125 46.288 522.807 46.6601C519.981 46.9771 517.949 50.3566 517.742 54.6367C518.3 52.6327 519.559 51.1229 521.325 50.6223Z" fill="#42DF8E"/>
<path d="M590.235 151.001C590.634 147.692 591.223 139.292 588.675 129.497C585.455 117.118 563.355 79.9234 559.818 75.8904C558.069 76.3379 553.652 79.5965 550.071 82.2389C545.917 85.3029 541.621 88.4724 538.599 89.7243C537.968 89.9821 537.296 90.1499 536.593 90.2287C532.028 90.7407 526.655 87.4357 523.129 84.7531C523.234 90.7143 520.93 98.5517 517.96 102.78C516.088 105.485 514.799 111.329 513.552 116.981C512.398 122.215 511.204 127.627 509.412 131.31C505.777 138.669 504.745 152.286 508.801 159.509C510.765 163.011 516.882 166.72 522.279 169.992C528.88 173.995 534.58 177.45 535.616 181.464C536.832 186.21 534.567 189.171 532.145 190.726L539.486 197.44C540.508 197.479 542.961 197.5 546.755 197.075C551.192 196.577 556.074 195.637 561.261 194.278C573.992 190.908 581.813 179.228 583.342 176.762C583.015 173.76 581.609 160.397 582.016 156.124C582.176 154.478 583.179 151.64 588.111 151.087C588.877 151 589.615 150.985 590.235 151.001Z" fill="#42DF8E"/>
<path d="M524.47 74.6853C524.834 75.644 527.365 77.917 531.117 79.8178C531.648 80.0805 532.149 80.345 532.62 80.5927C534.706 81.6927 535.629 82.1369 537.001 81.7926C539.023 81.2935 546.068 75.8626 549.076 73.5432L549.825 72.9664C550.945 72.0995 551.85 71.4917 552.577 71.0032C554.016 70.0365 554.14 69.8926 554.172 69.5951C553.949 69.1649 552.387 68.1213 549.544 67.4876C548.639 67.2738 547.35 66.919 545.856 66.5087C542.624 65.6207 538.198 64.406 536.446 64.2945C536.371 64.2889 536.302 64.2921 536.225 64.3008C534.763 64.4648 532.016 66.6298 529.387 69.6878C528.087 71.156 525.51 73.6767 524.47 74.6853Z" fill="#FFD221"/>
<path d="M510.011 178.849C508.501 176.863 507.196 175.147 506.5 174.297C503.753 170.919 499.238 167.308 497.304 167.525C497.134 167.544 497.049 167.593 496.995 167.634C496.029 168.338 495.362 170.226 494.716 172.052C493.824 174.577 492.813 177.439 490.548 179.183C488.873 180.476 486.192 181.38 483.601 182.255C481.757 182.878 477.439 184.334 477.332 185.254C477.181 186.496 477.588 187.715 478.104 189.259C478.711 191.08 479.468 193.346 479.365 196.244C479.267 198.065 478.916 199.833 478.575 201.544C478.102 203.923 477.566 206.622 478.37 207.343C479.339 208.022 484.752 208.286 488.705 208.479C493.673 208.722 498.81 208.973 502.046 209.921L502.903 210.174C508.699 211.879 519.487 215.053 524.691 214.469C525.164 214.416 525.564 214.333 525.881 214.223C526.711 213.518 530.207 210.36 530.545 206.921C531.035 202.483 526.502 197.88 523.758 195.53C520.711 192.915 514.527 184.785 510.011 178.849Z" fill="#FFD221"/>
<path d="M628.812 176.025L628.141 175.762C623.526 173.948 620.535 167.954 620.309 163.209C620.269 162.335 620.085 161.674 619.852 161.178C619.196 162.592 618.234 164.393 617.022 165.911C614.962 168.491 609.58 171.629 604.477 172.202C602.573 172.415 600.8 172.274 599.208 171.782C593.864 170.132 592.455 163.839 592.084 160.647C592.011 160.676 591.945 160.708 591.887 160.744C591.699 161.88 592.416 165.557 592.9 168.033C593.159 169.357 593.426 170.726 593.635 171.987C594.55 177.542 593.833 187.218 593.07 194.358C592.369 201.342 595.634 205.818 599.062 206.479C599.37 206.54 599.71 206.549 600.078 206.508C603.13 206.166 607.829 202.44 611.77 197.237C614.57 193.543 621.231 189.143 627.107 185.26C630.42 183.072 633.846 180.808 634.773 179.749C634.979 179.509 635 179.385 635 179.384C634.82 178.367 630.455 176.665 628.812 176.025Z" fill="#FFD221"/>
<path d="M638.677 170.84C632.276 169.021 629.285 165.988 628.981 160.996C628.593 155.174 624.83 151.301 623.081 149.799C623.62 146.092 624.978 133.323 620.069 122.914C614.798 111.776 600.689 95.4437 586.228 79.4559C580.306 72.8884 579.193 65.1516 577.904 56.1935C576.674 47.6493 575.282 37.9644 569.288 27.6965C562.77 16.5155 551.581 10.9399 538.59 12.397C530.861 13.2639 523.199 16.5691 517.567 21.4647C506.034 31.4945 509.796 50.1195 512.285 62.4428C512.627 64.1306 512.948 65.7248 513.184 67.09C515.28 79.1988 515.338 85.6985 514.691 87.7485C514.274 89.0875 511.922 93.0286 509.434 97.2018C506.861 101.518 503.943 106.409 501.608 110.924C498.827 116.354 496.991 124.383 495.215 132.147C493.916 137.828 492.688 143.194 491.276 146.479C488.609 152.789 490.06 158.232 491.039 160.713C489.875 161.731 488.246 163.662 487.072 167.087C485.657 171.264 482.123 173.819 474.445 176.208C470.922 177.35 468.606 179.146 467.558 181.544C466.034 185.034 467.527 189.038 468.782 191.748C470.636 195.73 470.064 198.446 469.023 203.379C468.784 204.516 468.512 205.805 468.249 207.222C467.835 209.459 468.293 211.399 469.606 212.989C473.078 217.186 481.905 217.814 490.924 217.867C496.31 217.902 502.366 219.375 508.223 220.8C513.962 222.196 519.896 223.641 525.149 223.692C525.947 223.702 526.733 223.664 527.485 223.58C535.308 222.702 538.261 217.115 539.142 214.857C541.888 213.968 551.374 211.045 561.336 209.677C571.278 208.274 581.148 209.162 583.951 209.466C584.994 211.015 587.682 214.518 591.51 216.049C593.617 216.912 596.449 217.224 599.278 216.906C599.279 216.906 599.278 216.906 599.279 216.906C602.3 216.567 607.969 215.208 611.981 209.911C615.98 204.594 626.629 197.183 634.405 191.772C636.141 190.564 637.764 189.434 639.185 188.42C643.546 185.32 645.671 181.352 645.013 177.533C644.466 174.36 642.038 171.796 638.677 170.84ZM547.971 41.8845C552.48 41.3788 556.672 45.6364 557.315 51.3754C557.583 53.7635 557.18 56.1159 556.243 58.0547C556.439 57.053 556.485 55.987 556.363 54.9004C555.825 50.1013 552.359 46.6835 548.471 47.1195C544.673 47.5456 542.012 51.7315 542.542 56.4507C542.578 56.7731 542.63 57.0929 542.696 57.4111C542.486 57.3571 542.281 57.3033 542.082 57.2522C541.496 55.9766 541.12 54.6204 540.962 53.2097C540.318 47.4711 543.462 42.3903 547.971 41.8845ZM536.446 64.296C538.197 64.4066 542.623 65.6223 545.855 66.5102C547.349 66.9205 548.64 67.2751 549.544 67.4891C552.386 68.1228 553.949 69.1664 554.172 69.5966C554.14 69.8945 554.015 70.038 552.576 71.0047C551.849 71.4927 550.945 72.1002 549.825 72.9679L549.076 73.5447C546.067 75.8645 539.022 81.2957 537.001 81.7941C535.628 82.1379 534.705 81.6933 532.619 80.5942C532.148 80.3457 531.648 80.0815 531.116 79.8193C527.365 77.9176 524.834 75.6455 524.469 74.6868C525.51 73.6786 528.086 71.1575 529.386 69.6898C532.014 66.6318 534.762 64.4668 536.223 64.3028C536.301 64.2929 536.371 64.2904 536.446 64.296ZM522.806 46.6589C526.124 46.2867 529.429 50.4437 530.023 55.7372C530.097 56.4048 530.124 57.0742 530.103 57.7942C529.909 57.9039 529.72 58.0208 529.535 58.1419C529.465 57.7027 529.37 57.2619 529.249 56.8215C528.08 52.8129 525.036 50.1493 522.013 50.4884C521.789 50.5135 521.566 50.5559 521.323 50.6211C519.558 51.1224 518.298 52.6315 517.74 54.6347C517.948 50.355 519.981 46.9758 522.806 46.6589ZM530.545 206.921C530.207 210.36 526.71 213.518 525.881 214.223C525.564 214.333 525.165 214.416 524.691 214.469C519.487 215.053 508.699 211.879 502.903 210.174L502.046 209.921C498.809 208.972 493.673 208.722 488.705 208.479C484.752 208.286 479.339 208.022 478.37 207.343C477.566 206.622 478.102 203.923 478.575 201.544C478.916 199.833 479.268 198.065 479.365 196.244C479.468 193.346 478.711 191.079 478.104 189.259C477.588 187.715 477.181 186.496 477.332 185.254C477.439 184.334 481.757 182.878 483.601 182.255C486.193 181.38 488.874 180.475 490.548 179.183C492.813 177.439 493.824 174.577 494.716 172.052C495.362 170.226 496.029 168.338 496.995 167.634C497.049 167.593 497.134 167.544 497.304 167.525C499.238 167.308 503.753 170.918 506.5 174.297C507.196 175.147 508.501 176.862 510.011 178.849C514.527 184.785 520.711 192.914 523.758 195.53C526.502 197.88 531.035 202.483 530.545 206.921ZM582.016 156.123C581.61 160.396 583.015 173.759 583.342 176.762C581.813 179.227 573.992 190.907 561.261 194.277C556.073 195.635 551.193 196.576 546.755 197.074C542.961 197.5 540.508 197.478 539.486 197.439L532.145 190.725C534.568 189.17 536.832 186.21 535.616 181.463C534.58 177.45 528.88 173.994 522.279 169.992C516.883 166.72 510.765 163.011 508.801 159.509C504.745 152.286 505.777 138.669 509.412 131.309C511.204 127.627 512.398 122.214 513.553 116.98C514.799 111.328 516.088 105.484 517.96 102.779C520.93 98.551 523.234 90.7136 523.129 84.7524C526.655 87.4351 532.029 90.74 536.593 90.228C537.296 90.1492 537.968 89.981 538.599 89.7236C541.621 88.4713 545.917 85.3023 550.071 82.2382C553.652 79.5958 558.069 76.3372 559.818 75.8897C563.356 79.9231 585.455 117.117 588.675 129.497C591.223 139.292 590.634 147.691 590.236 151C589.614 150.985 588.878 150.999 588.111 151.085C583.179 151.639 582.176 154.477 582.016 156.123ZM634.774 179.75C633.848 180.81 630.422 183.073 627.109 185.262C621.231 189.144 614.57 193.545 611.771 197.238C607.831 202.442 603.131 206.167 600.079 206.509C599.712 206.55 599.372 206.541 599.064 206.48C595.635 205.819 592.37 201.343 593.072 194.359C593.835 187.219 594.55 177.543 593.636 171.988C593.427 170.727 593.16 169.358 592.902 168.034C592.418 165.56 591.7 161.882 591.888 160.746C591.946 160.71 592.012 160.678 592.085 160.648C592.457 163.84 593.865 170.134 599.209 171.784C600.802 172.276 602.575 172.417 604.478 172.203C609.582 171.631 614.964 168.493 617.023 165.912C618.236 164.394 619.197 162.594 619.853 161.18C620.087 161.675 620.27 162.337 620.311 163.21C620.536 167.955 623.526 173.948 628.142 175.763L628.814 176.026C630.457 176.665 634.821 178.368 635.003 179.386C635.001 179.386 634.98 179.511 634.774 179.75Z" fill="#770E91"/>
</g>
<defs>
<clipPath id="clip0">
<rect width="161" height="161" fill="white" transform="translate(34.1508 31) rotate(12.2464)"/>
</clipPath>
<clipPath id="clip1">
<rect width="201" height="201" fill="white" transform="translate(199 21.4155) rotate(-4.39857)"/>
</clipPath>
<clipPath id="clip2">
<rect width="210" height="210" fill="white" transform="translate(431.951 24.3581) rotate(-6.39975)"/>
</clipPath>
</defs>
</svg>
