<svg width="65" height="65" viewBox="0 0 65 65" fill="none" xmlns="http://www.w3.org/2000/svg">
<g clip-path="url(#clip0)">
<path d="M65 12.3459C62.5828 13.4062 60.0072 14.1091 57.3219 14.4503C60.0844 12.8009 62.1928 10.2091 63.1841 7.085C60.6084 8.62062 57.7647 9.70531 54.7341 10.3106C52.2884 7.70656 48.8028 6.09375 45.0003 6.09375C37.6228 6.09375 31.6834 12.0819 31.6834 19.4228C31.6834 20.4791 31.7728 21.4947 31.9922 22.4616C20.9137 21.9212 11.1109 16.6116 4.52562 8.52313C3.37594 10.5178 2.70156 12.8009 2.70156 15.2587C2.70156 19.8738 5.07812 23.9647 8.62062 26.3331C6.47969 26.2925 4.37937 25.6709 2.6 24.6919C2.6 24.7325 2.6 24.7853 2.6 24.8381C2.6 31.3137 7.21906 36.6925 13.2762 37.9316C12.1916 38.2281 11.0094 38.3703 9.7825 38.3703C8.92937 38.3703 8.06812 38.3216 7.25969 38.1428C8.98625 43.42 13.8856 47.2997 19.7113 47.4256C15.1775 50.9722 9.42094 53.1091 3.18906 53.1091C2.09625 53.1091 1.04812 53.0603 0 52.9263C5.90281 56.7328 12.8984 58.9062 20.4425 58.9062C44.9637 58.9062 58.37 38.5938 58.37 20.9869C58.37 20.3978 58.3497 19.8291 58.3213 19.2644C60.9659 17.3875 63.1881 15.0434 65 12.3459Z" fill="#FFD221"/>
</g>
<defs>
<clipPath id="clip0">
<rect width="65" height="65" fill="white"/>
</clipPath>
</defs>
</svg>
